<?xml version="1.0" encoding="iso-8859-1"?>
<!-- Generator: Adobe Illustrator 19.0.0, SVG Export Plug-In . SVG Version: 6.00 Build 0)  -->
<svg version="1.1" id="Layer_1" xmlns="http://www.w3.org/2000/svg" xmlns:xlink="http://www.w3.org/1999/xlink" x="0px" y="0px"
	 viewBox="0 0 490 490" style="enable-background:new 0 0 490 490;" xml:space="preserve">
<g>
	<path d="M395.5,168.5c-4.4-9.7-23.5-15.4-33.3,0c-3.1,4.8-14,21.8-27.3,44.5v-67.4c0-11.4-9.4-20.8-20.8-20.8h-42.7v-104
		C271.4,9.4,262,0,250.6,0H85.2C73.8,0,64.4,9.4,64.4,20.8v104H23.8c-11.4,0-20.8,9.4-20.8,20.8V463c0,11.4,9.4,20.8,20.8,20.8
		h290.3c5.7,0,11.1-2.8,15-7.1c14.8,8.5,31.7,13.3,49.7,13.3c59.3,0,108.2-54.1,108.2-119.6C487,311.1,404.8,183.1,395.5,168.5z
		 M106,41.6h124.8v83.2H106V41.6z M43.6,405.7h41.6c11.4,0,20.8-9.4,20.8-20.8s-9.4-20.8-20.8-20.8H43.6v-39.5h41.6
		c11.4,0,20.8-9.4,20.8-20.8S96.6,283,85.2,283H43.6v-39.5h41.6c11.4,0,20.8-9.4,20.8-20.8c0-11.4-9.4-20.8-20.8-20.8H43.6v-35.4
		h249.7v126.2c-13,29.1-22.7,57.5-22.7,77.8c0,27.3,8.3,52.6,22.3,72.8H43.6V405.7z M378.8,448.4c-37.5,0-67.6-35.4-67.6-79.1
		c0-29.1,36.4-99.9,67.6-151.9c31.2,52,67.6,122.8,67.6,151.9C446.4,413,416.3,448.4,378.8,448.4z"/>
</g>
<g>
</g>
<g>
</g>
<g>
</g>
<g>
</g>
<g>
</g>
<g>
</g>
<g>
</g>
<g>
</g>
<g>
</g>
<g>
</g>
<g>
</g>
<g>
</g>
<g>
</g>
<g>
</g>
<g>
</g>
</svg>
