<svg xmlns="http://www.w3.org/2000/svg" width="164.613" height="190" viewBox="0 0 164.613 190">
  <g id="Group_51" data-name="Group 51" transform="translate(-1126.743 -456)">
    <g id="Group_42" data-name="Group 42" transform="translate(-69.393 -203.246)">
      <g id="Group_7" data-name="Group 7" transform="translate(1196.135 659.247)">
        <path id="Path_3" data-name="Path 3" d="M-454-963.284l87.136-17.143,77.355,17.146-77.355,25.64Z" transform="translate(454 1025)" fill="#315ee2"/>
        <path id="Path_2" data-name="Path 2" d="M-454-706.417v-98.771l82.123,16.828,82.392-16.828v107.419L-371.877-676.9Z" transform="translate(454 866.904)" fill="#4f76e8"/>
        <g id="Group_1" data-name="Group 1" transform="translate(22)">
          <path id="Subtraction_4" data-name="Subtraction 4" d="M30,60H0A60.016,60.016,0,0,1,115.285,36.644,59.631,59.631,0,0,1,120,60H90a30,30,0,0,0-60,0Z" transform="translate(0)" fill="#4f76e8"/>
          <ellipse id="Ellipse_5" data-name="Ellipse 5" cx="15" cy="6" rx="15" ry="6" transform="translate(90 54)" fill="#4f76e8"/>
          <ellipse id="Ellipse_6" data-name="Ellipse 6" cx="15" cy="6" rx="15" ry="6" transform="translate(0 54)" fill="#4f76e8"/>
        </g>
      </g>
      <path id="Path_4" data-name="Path 4" d="M602.826-672.67l16.721,4.212,35.983,75.76-.073-68.387,12.8,2.831.03,84.485L649.627-580.5l-35.312-72.41v59.981l-9.917-3.494C604.6-597.049,602.826-672.67,602.826-672.67Z" transform="translate(601.135 1406.246)" fill="#fff"/>
    </g>
    <path id="Path_24" data-name="Path 24" d="M-1362.227,1517.229a2.159,2.159,0,0,1-.483-1.5,2.231,2.231,0,0,1,.587-1.633,2.133,2.133,0,0,1,1.6-.6,2.3,2.3,0,0,1,1.246.335,2.143,2.143,0,0,1,.82.969,3.675,3.675,0,0,1,.285,1.514q0,.081,0,.161l-3.815.966A1.587,1.587,0,0,1-1362.227,1517.229Zm1.068-2.348a1.283,1.283,0,0,0-.238.834,1.164,1.164,0,0,0,.215.739.786.786,0,0,0,.655.272,1.009,1.009,0,0,0,.707-.27.823.823,0,0,0,.294-.622,1.421,1.421,0,0,0-.275-.884.848.848,0,0,0-.7-.36A.8.8,0,0,0-1361.158,1514.881Zm3.828.342,2.069-1.648h1.117v1.882l-1.348.341,0-.126.022-.669q-.339.338-.471.445l-.738.592Zm7.206-1.648h1.117v.581l-2.707.686Zm16.862-4.549v-1.089a3.2,3.2,0,0,0,.774.092,2.735,2.735,0,0,0,1.12-.2,1.422,1.422,0,0,0,.672-.628,2.784,2.784,0,0,0,.268-1.18h-.053a1.5,1.5,0,0,1-.589.58,1.859,1.859,0,0,1-.835.167,1.69,1.69,0,0,1-1.323-.538,2.161,2.161,0,0,1-.483-1.5,2.239,2.239,0,0,1,.587-1.633,2.137,2.137,0,0,1,1.6-.6,2.3,2.3,0,0,1,1.246.335,2.138,2.138,0,0,1,.82.968,3.681,3.681,0,0,1,.285,1.514,4.281,4.281,0,0,1-.8,2.835,3.013,3.013,0,0,1-2.422.936A4.591,4.591,0,0,1-1333.262,1509.026Zm1.1-5.145a1.288,1.288,0,0,0-.238.834,1.16,1.16,0,0,0,.215.738.782.782,0,0,0,.655.273,1.01,1.01,0,0,0,.707-.27.824.824,0,0,0,.294-.623,1.409,1.409,0,0,0-.275-.882.845.845,0,0,0-.7-.361A.805.805,0,0,0-1332.158,1503.881Zm-19.1,5.145v-1.089a3.2,3.2,0,0,0,.774.092,2.735,2.735,0,0,0,1.12-.2,1.422,1.422,0,0,0,.672-.628,2.784,2.784,0,0,0,.268-1.18h-.053a1.5,1.5,0,0,1-.589.58,1.859,1.859,0,0,1-.835.167,1.69,1.69,0,0,1-1.323-.538,2.161,2.161,0,0,1-.483-1.5,2.239,2.239,0,0,1,.587-1.633,2.137,2.137,0,0,1,1.6-.6,2.3,2.3,0,0,1,1.246.335,2.138,2.138,0,0,1,.82.968,3.665,3.665,0,0,1,.285,1.514,4.281,4.281,0,0,1-.8,2.835,3.013,3.013,0,0,1-2.422.936A4.591,4.591,0,0,1-1351.262,1509.026Zm1.1-5.145a1.288,1.288,0,0,0-.238.834,1.16,1.16,0,0,0,.215.738.782.782,0,0,0,.655.273,1.01,1.01,0,0,0,.707-.27.824.824,0,0,0,.294-.623,1.409,1.409,0,0,0-.275-.882.845.845,0,0,0-.7-.361A.805.805,0,0,0-1350.158,1503.881Zm10.793,5.119v-3.719l.013-.609.022-.669c-.226.226-.382.374-.47.445l-.739.592-.654-.816,2.07-1.649h1.116V1509Zm-5.137,0v-3.719l.013-.609.022-.669c-.226.226-.382.374-.47.445l-.739.592-.654-.816,2.07-1.649h1.116V1509Zm-12.863,0v-3.719l.013-.609.022-.669c-.226.226-.382.374-.47.445l-.739.592-.654-.816,2.07-1.649h1.116V1509Zm-5.137,0v-3.719l.013-.609.022-.669c-.226.226-.382.374-.47.445l-.739.592-.449-.56v-.42l1.865-1.485h1.116V1509Zm36-3.719.013-.609.022-.669c-.226.226-.382.374-.47.445l-.739.592-.654-.816,2.07-1.649h1.116v5.538l-1.358.344Zm5.137,0,.013-.609.022-.669c-.226.226-.382.374-.47.445l-.739.592-.654-.816,2.07-1.649h1.116v4.237l-1.358.344Zm5.656-.548a2.239,2.239,0,0,1,.587-1.633,2.137,2.137,0,0,1,1.6-.6,2.3,2.3,0,0,1,1.246.335,2.138,2.138,0,0,1,.82.968,3.164,3.164,0,0,1,.23.786l-1.3.329a.822.822,0,0,0,0-.085,1.409,1.409,0,0,0-.275-.882.845.845,0,0,0-.7-.361.805.805,0,0,0-.659.291,1.288,1.288,0,0,0-.238.834,1.255,1.255,0,0,0,.148.639l-1.306.331A2.669,2.669,0,0,1-1315.71,1504.733Zm5.379-.509,2.07-1.649h1.116v.98l-3.094.784Zm2.069-5.2v-1.09a3.144,3.144,0,0,0,.773.093,2.722,2.722,0,0,0,1.121-.2,1.418,1.418,0,0,0,.672-.628,2.78,2.78,0,0,0,.267-1.18h-.052a1.5,1.5,0,0,1-.589.579,1.856,1.856,0,0,1-.835.168,1.688,1.688,0,0,1-1.323-.539,2.159,2.159,0,0,1-.483-1.5,2.232,2.232,0,0,1,.587-1.633,2.132,2.132,0,0,1,1.6-.6,2.3,2.3,0,0,1,1.246.334,2.144,2.144,0,0,1,.82.969,3.677,3.677,0,0,1,.285,1.513,4.277,4.277,0,0,1-.8,2.836,3.012,3.012,0,0,1-2.421.935A4.511,4.511,0,0,1-1308.262,1499.026Zm1.1-5.145a1.285,1.285,0,0,0-.238.834,1.165,1.165,0,0,0,.215.739.786.786,0,0,0,.655.272,1.013,1.013,0,0,0,.707-.27.822.822,0,0,0,.294-.622,1.421,1.421,0,0,0-.275-.884.848.848,0,0,0-.7-.36A.8.8,0,0,0-1307.158,1493.881Zm-19.1,5.145v-1.09a3.144,3.144,0,0,0,.773.093,2.722,2.722,0,0,0,1.121-.2,1.418,1.418,0,0,0,.672-.628,2.78,2.78,0,0,0,.267-1.18h-.052a1.5,1.5,0,0,1-.589.579,1.856,1.856,0,0,1-.835.168,1.688,1.688,0,0,1-1.323-.539,2.159,2.159,0,0,1-.483-1.5,2.232,2.232,0,0,1,.587-1.633,2.132,2.132,0,0,1,1.6-.6,2.3,2.3,0,0,1,1.246.334,2.144,2.144,0,0,1,.82.969,3.677,3.677,0,0,1,.285,1.513,4.277,4.277,0,0,1-.8,2.836,3.012,3.012,0,0,1-2.421.935A4.511,4.511,0,0,1-1326.262,1499.026Zm1.1-5.145a1.285,1.285,0,0,0-.238.834,1.165,1.165,0,0,0,.215.739.786.786,0,0,0,.655.272,1.013,1.013,0,0,0,.707-.27.822.822,0,0,0,.294-.622,1.421,1.421,0,0,0-.275-.884.848.848,0,0,0-.7-.36A.8.8,0,0,0-1325.158,1493.881Zm-19.1,5.145v-1.09a3.144,3.144,0,0,0,.773.093,2.722,2.722,0,0,0,1.121-.2,1.418,1.418,0,0,0,.672-.628,2.78,2.78,0,0,0,.267-1.18h-.052a1.5,1.5,0,0,1-.589.579,1.856,1.856,0,0,1-.835.168,1.688,1.688,0,0,1-1.323-.539,2.159,2.159,0,0,1-.483-1.5,2.232,2.232,0,0,1,.587-1.633,2.132,2.132,0,0,1,1.6-.6,2.3,2.3,0,0,1,1.246.334,2.144,2.144,0,0,1,.82.969,3.677,3.677,0,0,1,.285,1.513,4.277,4.277,0,0,1-.8,2.836,3.012,3.012,0,0,1-2.421.935A4.511,4.511,0,0,1-1344.262,1499.026Zm1.1-5.145a1.285,1.285,0,0,0-.238.834,1.165,1.165,0,0,0,.215.739.786.786,0,0,0,.655.272,1.013,1.013,0,0,0,.707-.27.822.822,0,0,0,.294-.622,1.421,1.421,0,0,0-.275-.884.848.848,0,0,0-.7-.36A.8.8,0,0,0-1343.158,1493.881Zm-19.1,5.145v-1.09a3.144,3.144,0,0,0,.773.093,2.722,2.722,0,0,0,1.121-.2,1.418,1.418,0,0,0,.672-.628,2.78,2.78,0,0,0,.267-1.18h-.052a1.5,1.5,0,0,1-.589.579,1.856,1.856,0,0,1-.835.168,1.688,1.688,0,0,1-1.323-.539,2.159,2.159,0,0,1-.483-1.5,2.232,2.232,0,0,1,.587-1.633,2.132,2.132,0,0,1,1.6-.6,2.3,2.3,0,0,1,1.246.334,2.144,2.144,0,0,1,.82.969,3.677,3.677,0,0,1,.285,1.513,4.277,4.277,0,0,1-.8,2.836,3.012,3.012,0,0,1-2.421.935A4.511,4.511,0,0,1-1362.262,1499.026Zm1.1-5.145a1.285,1.285,0,0,0-.238.834,1.165,1.165,0,0,0,.215.739.786.786,0,0,0,.655.272,1.013,1.013,0,0,0,.707-.27.822.822,0,0,0,.294-.622,1.421,1.421,0,0,0-.275-.884.848.848,0,0,0-.7-.36A.8.8,0,0,0-1361.158,1493.881Zm70.9,5.145v-1.09a3.144,3.144,0,0,0,.773.093,2.722,2.722,0,0,0,1.121-.2,1.418,1.418,0,0,0,.672-.628,2.78,2.78,0,0,0,.267-1.18h-.052a1.5,1.5,0,0,1-.589.579,1.856,1.856,0,0,1-.835.168,1.688,1.688,0,0,1-1.323-.539,2.159,2.159,0,0,1-.483-1.5,2.232,2.232,0,0,1,.587-1.633,2.132,2.132,0,0,1,1.6-.6,2.3,2.3,0,0,1,1.246.334,2.144,2.144,0,0,1,.82.969,3.677,3.677,0,0,1,.285,1.513,4.277,4.277,0,0,1-.8,2.836,2.4,2.4,0,0,1-.452.41l-2.073.525A4.128,4.128,0,0,1-1290.262,1499.026Zm1.1-5.145a1.285,1.285,0,0,0-.238.834,1.165,1.165,0,0,0,.215.739.786.786,0,0,0,.655.272,1.013,1.013,0,0,0,.707-.27.822.822,0,0,0,.294-.622,1.421,1.421,0,0,0-.275-.884.848.848,0,0,0-.7-.36A.8.8,0,0,0-1289.158,1493.881Zm-7.207,5.119v-3.718l.013-.611.022-.669c-.226.227-.383.375-.471.445l-.738.594-.654-.818,2.069-1.648h1.117V1499Zm-5.137,0v-3.718l.013-.611.022-.669c-.226.227-.382.375-.471.445l-.738.594-.654-.818,2.069-1.648h1.117V1499Zm-12.863,0v-3.718l.013-.611.022-.669c-.226.227-.383.375-.471.445l-.738.594-.654-.818,2.069-1.648h1.117V1499Zm-5.137,0v-3.718l.013-.611.022-.669c-.226.227-.382.375-.471.445l-.738.594-.654-.818,2.069-1.648h1.117V1499Zm-12.863,0v-3.718l.013-.611.022-.669c-.226.227-.383.375-.471.445l-.738.594-.654-.818,2.069-1.648h1.117V1499Zm-5.137,0v-3.718l.013-.611.022-.669c-.226.227-.382.375-.471.445l-.738.594-.654-.818,2.069-1.648h1.117V1499Zm-12.863,0v-3.718l.013-.611.022-.669c-.226.227-.383.375-.471.445l-.738.594-.654-.818,2.069-1.648h1.117V1499Zm-5.137,0v-3.718l.013-.611.022-.669c-.226.227-.382.375-.471.445l-.738.594-.654-.818,2.069-1.648h1.117V1499Zm72-3.718.013-.611.022-.669c-.226.227-.382.375-.471.445l-.738.594-.654-.818,2.069-1.648h1.117v4.649l-1.358.344Zm-13.759-7.255v-1.091a3.159,3.159,0,0,0,.774.092,2.722,2.722,0,0,0,1.12-.2,1.426,1.426,0,0,0,.672-.628,2.777,2.777,0,0,0,.268-1.18h-.053a1.5,1.5,0,0,1-.589.58,1.857,1.857,0,0,1-.835.167,1.69,1.69,0,0,1-1.323-.539,2.158,2.158,0,0,1-.483-1.5,2.235,2.235,0,0,1,.587-1.633,2.133,2.133,0,0,1,1.6-.6,2.293,2.293,0,0,1,1.246.334,2.142,2.142,0,0,1,.82.968,3.676,3.676,0,0,1,.285,1.513,4.278,4.278,0,0,1-.8,2.835,3.01,3.01,0,0,1-2.422.936A4.685,4.685,0,0,1-1297.262,1488.028Zm1.1-5.146a1.284,1.284,0,0,0-.238.834,1.162,1.162,0,0,0,.215.739.784.784,0,0,0,.655.273,1.01,1.01,0,0,0,.707-.271.822.822,0,0,0,.294-.622,1.416,1.416,0,0,0-.275-.884.846.846,0,0,0-.7-.36A.805.805,0,0,0-1296.158,1482.881Zm-19.1,5.146v-1.091a3.159,3.159,0,0,0,.774.092,2.722,2.722,0,0,0,1.12-.2,1.426,1.426,0,0,0,.672-.628,2.777,2.777,0,0,0,.268-1.18h-.053a1.5,1.5,0,0,1-.589.58,1.857,1.857,0,0,1-.835.167,1.69,1.69,0,0,1-1.323-.539,2.158,2.158,0,0,1-.483-1.5,2.235,2.235,0,0,1,.587-1.633,2.133,2.133,0,0,1,1.6-.6,2.293,2.293,0,0,1,1.246.334,2.142,2.142,0,0,1,.82.968,3.676,3.676,0,0,1,.285,1.513,4.278,4.278,0,0,1-.8,2.835,3.01,3.01,0,0,1-2.422.936A4.685,4.685,0,0,1-1315.262,1488.028Zm1.1-5.146a1.284,1.284,0,0,0-.238.834,1.162,1.162,0,0,0,.215.739.784.784,0,0,0,.655.273,1.01,1.01,0,0,0,.707-.271.822.822,0,0,0,.294-.622,1.416,1.416,0,0,0-.275-.884.846.846,0,0,0-.7-.36A.805.805,0,0,0-1314.158,1482.881Zm-19.1,5.146v-1.091a3.159,3.159,0,0,0,.774.092,2.722,2.722,0,0,0,1.12-.2,1.426,1.426,0,0,0,.672-.628,2.777,2.777,0,0,0,.268-1.18h-.053a1.5,1.5,0,0,1-.589.58,1.857,1.857,0,0,1-.835.167,1.69,1.69,0,0,1-1.323-.539,2.158,2.158,0,0,1-.483-1.5,2.235,2.235,0,0,1,.587-1.633,2.133,2.133,0,0,1,1.6-.6,2.293,2.293,0,0,1,1.246.334,2.142,2.142,0,0,1,.82.968,3.676,3.676,0,0,1,.285,1.513,4.278,4.278,0,0,1-.8,2.835,3.01,3.01,0,0,1-2.422.936A4.685,4.685,0,0,1-1333.262,1488.028Zm1.1-5.146a1.284,1.284,0,0,0-.238.834,1.162,1.162,0,0,0,.215.739.784.784,0,0,0,.655.273,1.01,1.01,0,0,0,.707-.271.822.822,0,0,0,.294-.622,1.416,1.416,0,0,0-.275-.884.846.846,0,0,0-.7-.36A.805.805,0,0,0-1332.158,1482.881Zm-19.1,5.146v-1.091a3.159,3.159,0,0,0,.774.092,2.722,2.722,0,0,0,1.12-.2,1.426,1.426,0,0,0,.672-.628,2.777,2.777,0,0,0,.268-1.18h-.053a1.5,1.5,0,0,1-.589.58,1.857,1.857,0,0,1-.835.167,1.69,1.69,0,0,1-1.323-.539,2.158,2.158,0,0,1-.483-1.5,2.235,2.235,0,0,1,.587-1.633,2.133,2.133,0,0,1,1.6-.6,2.293,2.293,0,0,1,1.246.334,2.142,2.142,0,0,1,.82.968,3.66,3.66,0,0,1,.285,1.513,4.278,4.278,0,0,1-.8,2.835,3.01,3.01,0,0,1-2.422.936A4.685,4.685,0,0,1-1351.262,1488.028Zm1.1-5.146a1.284,1.284,0,0,0-.238.834,1.162,1.162,0,0,0,.215.739.784.784,0,0,0,.655.273,1.01,1.01,0,0,0,.707-.271.822.822,0,0,0,.294-.622,1.416,1.416,0,0,0-.275-.884.846.846,0,0,0-.7-.36A.805.805,0,0,0-1350.158,1482.881Zm64.793,5.119v-3.719l.013-.609.022-.669q-.339.338-.47.445l-.739.593-.654-.818,2.07-1.648h1.116V1488Zm-5.137,0v-3.719l.013-.609.022-.669q-.339.338-.47.445l-.739.593-.654-.818,2.07-1.648h1.116V1488Zm-12.863,0v-3.719l.013-.609.022-.669q-.339.338-.47.445l-.739.593-.654-.818,2.07-1.648h1.116V1488Zm-5.137,0v-3.719l.013-.609.022-.669q-.339.338-.47.445l-.739.593-.654-.818,2.07-1.648h1.116V1488Zm-12.863,0v-3.719l.013-.609.022-.669q-.339.338-.47.445l-.739.593-.654-.818,2.07-1.648h1.116V1488Zm-5.137,0v-3.719l.013-.609.022-.669q-.339.338-.47.445l-.739.593-.654-.818,2.07-1.648h1.116V1488Zm-12.863,0v-3.719l.013-.609.022-.669q-.339.338-.47.445l-.739.593-.654-.818,2.07-1.648h1.116V1488Zm-5.137,0v-3.719l.013-.609.022-.669q-.339.338-.47.445l-.739.593-.654-.818,2.07-1.648h1.116V1488Zm-12.863,0v-3.719l.013-.609.022-.669q-.339.338-.47.445l-.739.593-.654-.818,2.07-1.648h1.116V1488Zm-5.137,0v-3.719l.013-.609.022-.669q-.339.338-.47.445l-.739.593-.45-.562v-.418l1.866-1.485h1.116V1488Zm72.241-9.975v-1.089a3.186,3.186,0,0,0,.773.093,2.707,2.707,0,0,0,1.121-.2,1.41,1.41,0,0,0,.672-.628,2.773,2.773,0,0,0,.267-1.18h-.052a1.5,1.5,0,0,1-.589.58,1.846,1.846,0,0,1-.835.168,1.688,1.688,0,0,1-1.323-.539,2.157,2.157,0,0,1-.483-1.5,2.233,2.233,0,0,1,.587-1.633,2.129,2.129,0,0,1,1.6-.6,2.288,2.288,0,0,1,1.246.335,2.143,2.143,0,0,1,.82.968,3.676,3.676,0,0,1,.285,1.514,4.28,4.28,0,0,1-.8,2.835,3.01,3.01,0,0,1-2.421.936A4.413,4.413,0,0,1-1290.262,1478.026Zm1.1-5.144a1.284,1.284,0,0,0-.238.833,1.169,1.169,0,0,0,.215.74.786.786,0,0,0,.655.271,1.006,1.006,0,0,0,.707-.27.82.82,0,0,0,.294-.621,1.414,1.414,0,0,0-.275-.883.845.845,0,0,0-.7-.362A.8.8,0,0,0-1289.158,1472.882Zm-19.1,5.144v-1.089a3.186,3.186,0,0,0,.773.093,2.707,2.707,0,0,0,1.121-.2,1.41,1.41,0,0,0,.672-.628,2.773,2.773,0,0,0,.267-1.18h-.052a1.5,1.5,0,0,1-.589.58,1.846,1.846,0,0,1-.835.168,1.688,1.688,0,0,1-1.323-.539,2.157,2.157,0,0,1-.483-1.5,2.233,2.233,0,0,1,.587-1.633,2.129,2.129,0,0,1,1.6-.6,2.288,2.288,0,0,1,1.246.335,2.143,2.143,0,0,1,.82.968,3.676,3.676,0,0,1,.285,1.514,4.28,4.28,0,0,1-.8,2.835,3.01,3.01,0,0,1-2.421.936A4.413,4.413,0,0,1-1308.262,1478.026Zm1.1-5.144a1.284,1.284,0,0,0-.238.833,1.169,1.169,0,0,0,.215.74.786.786,0,0,0,.655.271,1.006,1.006,0,0,0,.707-.27.82.82,0,0,0,.294-.621,1.414,1.414,0,0,0-.275-.883.845.845,0,0,0-.7-.362A.8.8,0,0,0-1307.158,1472.882Zm-19.1,5.144v-1.089a3.186,3.186,0,0,0,.773.093,2.707,2.707,0,0,0,1.121-.2,1.41,1.41,0,0,0,.672-.628,2.773,2.773,0,0,0,.267-1.18h-.052a1.5,1.5,0,0,1-.589.58,1.846,1.846,0,0,1-.835.168,1.688,1.688,0,0,1-1.323-.539,2.157,2.157,0,0,1-.483-1.5,2.233,2.233,0,0,1,.587-1.633,2.129,2.129,0,0,1,1.6-.6,2.288,2.288,0,0,1,1.246.335,2.143,2.143,0,0,1,.82.968,3.676,3.676,0,0,1,.285,1.514,4.28,4.28,0,0,1-.8,2.835,3.01,3.01,0,0,1-2.421.936A4.413,4.413,0,0,1-1326.262,1478.026Zm1.1-5.144a1.284,1.284,0,0,0-.238.833,1.169,1.169,0,0,0,.215.74.786.786,0,0,0,.655.271,1.006,1.006,0,0,0,.707-.27.82.82,0,0,0,.294-.621,1.414,1.414,0,0,0-.275-.883.845.845,0,0,0-.7-.362A.8.8,0,0,0-1325.158,1472.882Zm-19.1,5.144v-1.089a3.186,3.186,0,0,0,.773.093,2.707,2.707,0,0,0,1.121-.2,1.41,1.41,0,0,0,.672-.628,2.773,2.773,0,0,0,.267-1.18h-.052a1.5,1.5,0,0,1-.589.58,1.846,1.846,0,0,1-.835.168,1.688,1.688,0,0,1-1.323-.539,2.157,2.157,0,0,1-.483-1.5,2.233,2.233,0,0,1,.587-1.633,2.129,2.129,0,0,1,1.6-.6,2.288,2.288,0,0,1,1.246.335,2.143,2.143,0,0,1,.82.968,3.676,3.676,0,0,1,.285,1.514,4.28,4.28,0,0,1-.8,2.835,3.01,3.01,0,0,1-2.421.936A4.413,4.413,0,0,1-1344.262,1478.026Zm1.1-5.144a1.284,1.284,0,0,0-.238.833,1.169,1.169,0,0,0,.215.74.786.786,0,0,0,.655.271,1.006,1.006,0,0,0,.707-.27.82.82,0,0,0,.294-.621,1.414,1.414,0,0,0-.275-.883.845.845,0,0,0-.7-.362A.8.8,0,0,0-1343.158,1472.882Zm-19.1,5.144v-1.089a3.186,3.186,0,0,0,.773.093,2.707,2.707,0,0,0,1.121-.2,1.41,1.41,0,0,0,.672-.628,2.773,2.773,0,0,0,.267-1.18h-.052a1.5,1.5,0,0,1-.589.58,1.846,1.846,0,0,1-.835.168,1.688,1.688,0,0,1-1.323-.539,2.157,2.157,0,0,1-.483-1.5,2.233,2.233,0,0,1,.587-1.633,2.129,2.129,0,0,1,1.6-.6,2.288,2.288,0,0,1,1.246.335,2.143,2.143,0,0,1,.82.968,3.676,3.676,0,0,1,.285,1.514,4.28,4.28,0,0,1-.8,2.835,3.01,3.01,0,0,1-2.421.936A4.413,4.413,0,0,1-1362.262,1478.026Zm1.1-5.144a1.284,1.284,0,0,0-.238.833,1.169,1.169,0,0,0,.215.74.786.786,0,0,0,.655.271,1.006,1.006,0,0,0,.707-.27.82.82,0,0,0,.294-.621,1.414,1.414,0,0,0-.275-.883.845.845,0,0,0-.7-.362A.8.8,0,0,0-1361.158,1472.882ZM-1283.5,1478v-3.717l.013-.61.022-.669c-.226.226-.382.373-.471.445l-.738.593-.654-.818,2.069-1.648h1.117V1478Zm-12.863,0v-3.717l.013-.61.022-.669c-.226.226-.383.373-.471.445l-.738.593-.654-.818,2.069-1.648h1.117V1478Zm-5.137,0v-3.717l.013-.61.022-.669c-.226.226-.382.373-.471.445l-.738.593-.654-.818,2.069-1.648h1.117V1478Zm-12.863,0v-3.717l.013-.61.022-.669c-.226.226-.383.373-.471.445l-.738.593-.654-.818,2.069-1.648h1.117V1478Zm-5.137,0v-3.717l.013-.61.022-.669c-.226.226-.382.373-.471.445l-.738.593-.654-.818,2.069-1.648h1.117V1478Zm-12.863,0v-3.717l.013-.61.022-.669c-.226.226-.383.373-.471.445l-.738.593-.654-.818,2.069-1.648h1.117V1478Zm-5.137,0v-3.717l.013-.61.022-.669c-.226.226-.382.373-.471.445l-.738.593-.654-.818,2.069-1.648h1.117V1478Zm-12.863,0v-3.717l.013-.61.022-.669c-.226.226-.383.373-.471.445l-.738.593-.654-.818,2.069-1.648h1.117V1478Zm-5.137,0v-3.717l.013-.61.022-.669c-.226.226-.382.373-.471.445l-.738.593-.654-.818,2.069-1.648h1.117V1478Zm58.241-10.973v-1.09a3.2,3.2,0,0,0,.774.092,2.721,2.721,0,0,0,1.12-.2,1.415,1.415,0,0,0,.672-.629,2.769,2.769,0,0,0,.268-1.179h-.053a1.51,1.51,0,0,1-.589.58,1.857,1.857,0,0,1-.835.167,1.689,1.689,0,0,1-1.323-.537,2.162,2.162,0,0,1-.483-1.5,2.236,2.236,0,0,1,.587-1.632,2.13,2.13,0,0,1,1.6-.6,2.286,2.286,0,0,1,1.246.334,2.14,2.14,0,0,1,.82.967,3.688,3.688,0,0,1,.285,1.515,4.281,4.281,0,0,1-.8,2.835,3.013,3.013,0,0,1-2.422.936A4.593,4.593,0,0,1-1297.262,1467.027Zm1.1-5.147a1.292,1.292,0,0,0-.238.835,1.164,1.164,0,0,0,.215.739.784.784,0,0,0,.655.273,1.01,1.01,0,0,0,.707-.271.824.824,0,0,0,.294-.622,1.411,1.411,0,0,0-.275-.883.845.845,0,0,0-.7-.361A.807.807,0,0,0-1296.158,1461.88Zm-19.1,5.147v-1.09a3.2,3.2,0,0,0,.774.092,2.721,2.721,0,0,0,1.12-.2,1.415,1.415,0,0,0,.672-.629,2.769,2.769,0,0,0,.268-1.179h-.053a1.51,1.51,0,0,1-.589.58,1.857,1.857,0,0,1-.835.167,1.689,1.689,0,0,1-1.323-.537,2.162,2.162,0,0,1-.483-1.5,2.236,2.236,0,0,1,.587-1.632,2.13,2.13,0,0,1,1.6-.6,2.286,2.286,0,0,1,1.246.334,2.14,2.14,0,0,1,.82.967,3.688,3.688,0,0,1,.285,1.515,4.281,4.281,0,0,1-.8,2.835,3.013,3.013,0,0,1-2.422.936A4.593,4.593,0,0,1-1315.262,1467.027Zm1.1-5.147a1.292,1.292,0,0,0-.238.835,1.164,1.164,0,0,0,.215.739.784.784,0,0,0,.655.273,1.01,1.01,0,0,0,.707-.271.824.824,0,0,0,.294-.622,1.411,1.411,0,0,0-.275-.883.845.845,0,0,0-.7-.361A.807.807,0,0,0-1314.158,1461.88Zm-19.1,5.147v-1.09a3.2,3.2,0,0,0,.774.092,2.721,2.721,0,0,0,1.12-.2,1.415,1.415,0,0,0,.672-.629,2.769,2.769,0,0,0,.268-1.179h-.053a1.51,1.51,0,0,1-.589.58,1.857,1.857,0,0,1-.835.167,1.689,1.689,0,0,1-1.323-.537,2.162,2.162,0,0,1-.483-1.5,2.236,2.236,0,0,1,.587-1.632,2.13,2.13,0,0,1,1.6-.6,2.286,2.286,0,0,1,1.246.334,2.14,2.14,0,0,1,.82.967,3.688,3.688,0,0,1,.285,1.515,4.281,4.281,0,0,1-.8,2.835,3.013,3.013,0,0,1-2.422.936A4.593,4.593,0,0,1-1333.262,1467.027Zm1.1-5.147a1.292,1.292,0,0,0-.238.835,1.164,1.164,0,0,0,.215.739.784.784,0,0,0,.655.273,1.01,1.01,0,0,0,.707-.271.824.824,0,0,0,.294-.622,1.411,1.411,0,0,0-.275-.883.845.845,0,0,0-.7-.361A.807.807,0,0,0-1332.158,1461.88Zm-19.1,5.147v-1.09a3.2,3.2,0,0,0,.774.092,2.721,2.721,0,0,0,1.12-.2,1.415,1.415,0,0,0,.672-.629,2.769,2.769,0,0,0,.268-1.179h-.053a1.51,1.51,0,0,1-.589.58,1.857,1.857,0,0,1-.835.167,1.689,1.689,0,0,1-1.323-.537,2.162,2.162,0,0,1-.483-1.5,2.236,2.236,0,0,1,.587-1.632,2.13,2.13,0,0,1,1.6-.6,2.286,2.286,0,0,1,1.246.334,2.14,2.14,0,0,1,.82.967,3.672,3.672,0,0,1,.285,1.515,4.281,4.281,0,0,1-.8,2.835,3.013,3.013,0,0,1-2.422.936A4.593,4.593,0,0,1-1351.262,1467.027Zm1.1-5.147a1.292,1.292,0,0,0-.238.835,1.164,1.164,0,0,0,.215.739.784.784,0,0,0,.655.273,1.01,1.01,0,0,0,.707-.271.824.824,0,0,0,.294-.622,1.411,1.411,0,0,0-.275-.883.845.845,0,0,0-.7-.361A.807.807,0,0,0-1350.158,1461.88Zm64.793,5.12v-3.718l.013-.61.022-.669c-.226.226-.382.373-.47.445l-.739.593-.654-.817,2.07-1.648h1.116V1467Zm-5.137,0v-3.718l.013-.61.022-.669c-.226.226-.382.373-.47.445l-.739.593-.654-.817,2.07-1.648h1.116V1467Zm-12.863,0v-3.718l.013-.61.022-.669c-.226.226-.382.373-.47.445l-.739.593-.654-.817,2.07-1.648h1.116V1467Zm-5.137,0v-3.718l.013-.61.022-.669c-.226.226-.382.373-.47.445l-.739.593-.654-.817,2.07-1.648h1.116V1467Zm-12.863,0v-3.718l.013-.61.022-.669c-.226.226-.382.373-.47.445l-.739.593-.654-.817,2.07-1.648h1.116V1467Zm-5.137,0v-3.718l.013-.61.022-.669c-.226.226-.382.373-.47.445l-.739.593-.654-.817,2.07-1.648h1.116V1467Zm-12.863,0v-3.718l.013-.61.022-.669c-.226.226-.382.373-.47.445l-.739.593-.654-.817,2.07-1.648h1.116V1467Zm-5.137,0v-3.718l.013-.61.022-.669c-.226.226-.382.373-.47.445l-.739.593-.654-.817,2.07-1.648h1.116V1467Zm-12.863,0v-3.718l.013-.61.022-.669c-.226.226-.382.373-.47.445l-.739.593-.654-.817,2.07-1.648h1.116V1467Zm-5.137,0v-3.718l.013-.61.022-.669c-.226.226-.382.373-.47.445l-.739.593-.451-.563v-.416l1.867-1.486h1.116V1467Zm72.241-9.974v-1.09a3.145,3.145,0,0,0,.773.092,2.723,2.723,0,0,0,1.121-.2,1.426,1.426,0,0,0,.672-.628,2.781,2.781,0,0,0,.267-1.18h-.052a1.5,1.5,0,0,1-.589.58,1.858,1.858,0,0,1-.835.167,1.69,1.69,0,0,1-1.323-.539,2.159,2.159,0,0,1-.483-1.5,2.231,2.231,0,0,1,.587-1.633,2.133,2.133,0,0,1,1.6-.6,2.3,2.3,0,0,1,1.246.335,2.143,2.143,0,0,1,.82.969,3.675,3.675,0,0,1,.285,1.514,4.272,4.272,0,0,1-.8,2.834,3.008,3.008,0,0,1-2.421.937A4.578,4.578,0,0,1-1290.262,1457.026Zm1.1-5.145a1.283,1.283,0,0,0-.238.834,1.164,1.164,0,0,0,.215.739.786.786,0,0,0,.655.272,1.009,1.009,0,0,0,.707-.27.823.823,0,0,0,.294-.622,1.421,1.421,0,0,0-.275-.884.848.848,0,0,0-.7-.36A.8.8,0,0,0-1289.158,1451.881Zm-19.1,5.145v-1.09a3.145,3.145,0,0,0,.773.092,2.723,2.723,0,0,0,1.121-.2,1.426,1.426,0,0,0,.672-.628,2.781,2.781,0,0,0,.267-1.18h-.052a1.5,1.5,0,0,1-.589.58,1.858,1.858,0,0,1-.835.167,1.69,1.69,0,0,1-1.323-.539,2.159,2.159,0,0,1-.483-1.5,2.231,2.231,0,0,1,.587-1.633,2.133,2.133,0,0,1,1.6-.6,2.3,2.3,0,0,1,1.246.335,2.143,2.143,0,0,1,.82.969,3.675,3.675,0,0,1,.285,1.514,4.272,4.272,0,0,1-.8,2.834,3.008,3.008,0,0,1-2.421.937A4.578,4.578,0,0,1-1308.262,1457.026Zm1.1-5.145a1.283,1.283,0,0,0-.238.834,1.164,1.164,0,0,0,.215.739.786.786,0,0,0,.655.272,1.009,1.009,0,0,0,.707-.27.823.823,0,0,0,.294-.622,1.421,1.421,0,0,0-.275-.884.848.848,0,0,0-.7-.36A.8.8,0,0,0-1307.158,1451.881Zm-19.1,5.145v-1.09a3.145,3.145,0,0,0,.773.092,2.723,2.723,0,0,0,1.121-.2,1.426,1.426,0,0,0,.672-.628,2.781,2.781,0,0,0,.267-1.18h-.052a1.5,1.5,0,0,1-.589.58,1.858,1.858,0,0,1-.835.167,1.69,1.69,0,0,1-1.323-.539,2.159,2.159,0,0,1-.483-1.5,2.231,2.231,0,0,1,.587-1.633,2.133,2.133,0,0,1,1.6-.6,2.3,2.3,0,0,1,1.246.335,2.143,2.143,0,0,1,.82.969,3.675,3.675,0,0,1,.285,1.514,4.272,4.272,0,0,1-.8,2.834,3.008,3.008,0,0,1-2.421.937A4.578,4.578,0,0,1-1326.262,1457.026Zm1.1-5.145a1.283,1.283,0,0,0-.238.834,1.164,1.164,0,0,0,.215.739.786.786,0,0,0,.655.272,1.009,1.009,0,0,0,.707-.27.823.823,0,0,0,.294-.622,1.421,1.421,0,0,0-.275-.884.848.848,0,0,0-.7-.36A.8.8,0,0,0-1325.158,1451.881Zm-19.1,5.145v-1.09a3.145,3.145,0,0,0,.773.092,2.723,2.723,0,0,0,1.121-.2,1.426,1.426,0,0,0,.672-.628,2.781,2.781,0,0,0,.267-1.18h-.052a1.5,1.5,0,0,1-.589.58,1.858,1.858,0,0,1-.835.167,1.69,1.69,0,0,1-1.323-.539,2.159,2.159,0,0,1-.483-1.5,2.231,2.231,0,0,1,.587-1.633,2.133,2.133,0,0,1,1.6-.6,2.3,2.3,0,0,1,1.246.335,2.143,2.143,0,0,1,.82.969,3.675,3.675,0,0,1,.285,1.514,4.272,4.272,0,0,1-.8,2.834,3.008,3.008,0,0,1-2.421.937A4.578,4.578,0,0,1-1344.262,1457.026Zm1.1-5.145a1.283,1.283,0,0,0-.238.834,1.164,1.164,0,0,0,.215.739.786.786,0,0,0,.655.272,1.009,1.009,0,0,0,.707-.27.823.823,0,0,0,.294-.622,1.421,1.421,0,0,0-.275-.884.848.848,0,0,0-.7-.36A.8.8,0,0,0-1343.158,1451.881Zm-19.1,5.145v-1.09a3.145,3.145,0,0,0,.773.092,2.723,2.723,0,0,0,1.121-.2,1.426,1.426,0,0,0,.672-.628,2.781,2.781,0,0,0,.267-1.18h-.052a1.5,1.5,0,0,1-.589.58,1.858,1.858,0,0,1-.835.167,1.69,1.69,0,0,1-1.323-.539,2.159,2.159,0,0,1-.483-1.5,2.231,2.231,0,0,1,.587-1.633,2.133,2.133,0,0,1,1.6-.6,2.3,2.3,0,0,1,1.246.335,2.143,2.143,0,0,1,.82.969,3.675,3.675,0,0,1,.285,1.514,4.272,4.272,0,0,1-.8,2.834,3.008,3.008,0,0,1-2.421.937A4.578,4.578,0,0,1-1362.262,1457.026Zm1.1-5.145a1.283,1.283,0,0,0-.238.834,1.164,1.164,0,0,0,.215.739.786.786,0,0,0,.655.272,1.009,1.009,0,0,0,.707-.27.823.823,0,0,0,.294-.622,1.421,1.421,0,0,0-.275-.884.848.848,0,0,0-.7-.36A.8.8,0,0,0-1361.158,1451.881ZM-1283.5,1457v-3.719l.013-.609.022-.669q-.339.338-.471.445l-.738.592-.654-.817,2.069-1.649h1.117V1457Zm-12.863,0v-3.719l.013-.609.022-.669q-.339.338-.471.445l-.738.592-.654-.817,2.069-1.649h1.117V1457Zm-5.137,0v-3.719l.013-.609.022-.669q-.339.338-.471.445l-.738.592-.654-.817,2.069-1.649h1.117V1457Zm-12.863,0v-3.719l.013-.609.022-.669q-.339.338-.471.445l-.738.592-.654-.817,2.069-1.649h1.117V1457Zm-5.137,0v-3.719l.013-.609.022-.669q-.339.338-.471.445l-.738.592-.654-.817,2.069-1.649h1.117V1457Zm-12.863,0v-3.719l.013-.609.022-.669q-.339.338-.471.445l-.738.592-.654-.817,2.069-1.649h1.117V1457Zm-5.137,0v-3.719l.013-.609.022-.669q-.339.338-.471.445l-.738.592-.654-.817,2.069-1.649h1.117V1457Zm-12.863,0v-3.719l.013-.609.022-.669q-.339.338-.471.445l-.738.592-.654-.817,2.069-1.649h1.117V1457Zm-5.137,0v-3.719l.013-.609.022-.669q-.339.338-.471.445l-.738.592-.654-.817,2.069-1.649h1.117V1457Zm58.241-10.974v-1.089a3.2,3.2,0,0,0,.774.092,2.735,2.735,0,0,0,1.12-.2,1.422,1.422,0,0,0,.672-.628,2.784,2.784,0,0,0,.268-1.18h-.053a1.5,1.5,0,0,1-.589.58,1.859,1.859,0,0,1-.835.167,1.69,1.69,0,0,1-1.323-.538,2.161,2.161,0,0,1-.483-1.5,2.239,2.239,0,0,1,.587-1.633,2.137,2.137,0,0,1,1.6-.6,2.3,2.3,0,0,1,1.246.335,2.14,2.14,0,0,1,.82.968,3.688,3.688,0,0,1,.285,1.515,4.281,4.281,0,0,1-.8,2.835,3.013,3.013,0,0,1-2.422.936A4.591,4.591,0,0,1-1297.262,1446.026Zm1.1-5.145a1.288,1.288,0,0,0-.238.834,1.16,1.16,0,0,0,.215.738.782.782,0,0,0,.655.273,1.01,1.01,0,0,0,.707-.27.824.824,0,0,0,.294-.623,1.409,1.409,0,0,0-.275-.882.845.845,0,0,0-.7-.361A.805.805,0,0,0-1296.158,1440.881Zm-19.1,5.145v-1.089a3.2,3.2,0,0,0,.774.092,2.735,2.735,0,0,0,1.12-.2,1.422,1.422,0,0,0,.672-.628,2.784,2.784,0,0,0,.268-1.18h-.053a1.5,1.5,0,0,1-.589.58,1.859,1.859,0,0,1-.835.167,1.69,1.69,0,0,1-1.323-.538,2.161,2.161,0,0,1-.483-1.5,2.239,2.239,0,0,1,.587-1.633,2.137,2.137,0,0,1,1.6-.6,2.3,2.3,0,0,1,1.246.335,2.14,2.14,0,0,1,.82.968,3.688,3.688,0,0,1,.285,1.515,4.281,4.281,0,0,1-.8,2.835,3.013,3.013,0,0,1-2.422.936A4.591,4.591,0,0,1-1315.262,1446.026Zm1.1-5.145a1.288,1.288,0,0,0-.238.834,1.16,1.16,0,0,0,.215.738.782.782,0,0,0,.655.273,1.01,1.01,0,0,0,.707-.27.824.824,0,0,0,.294-.623,1.409,1.409,0,0,0-.275-.882.845.845,0,0,0-.7-.361A.805.805,0,0,0-1314.158,1440.881Zm-19.1,5.145v-1.089a3.2,3.2,0,0,0,.774.092,2.735,2.735,0,0,0,1.12-.2,1.422,1.422,0,0,0,.672-.628,2.784,2.784,0,0,0,.268-1.18h-.053a1.5,1.5,0,0,1-.589.58,1.859,1.859,0,0,1-.835.167,1.69,1.69,0,0,1-1.323-.538,2.161,2.161,0,0,1-.483-1.5,2.239,2.239,0,0,1,.587-1.633,2.137,2.137,0,0,1,1.6-.6,2.3,2.3,0,0,1,1.246.335,2.14,2.14,0,0,1,.82.968,3.688,3.688,0,0,1,.285,1.515,4.281,4.281,0,0,1-.8,2.835,3.013,3.013,0,0,1-2.422.936A4.591,4.591,0,0,1-1333.262,1446.026Zm1.1-5.145a1.288,1.288,0,0,0-.238.834,1.16,1.16,0,0,0,.215.738.782.782,0,0,0,.655.273,1.01,1.01,0,0,0,.707-.27.824.824,0,0,0,.294-.623,1.409,1.409,0,0,0-.275-.882.845.845,0,0,0-.7-.361A.805.805,0,0,0-1332.158,1440.881Zm-19.1,5.145v-1.089a3.2,3.2,0,0,0,.774.092,2.735,2.735,0,0,0,1.12-.2,1.422,1.422,0,0,0,.672-.628,2.784,2.784,0,0,0,.268-1.18h-.053a1.5,1.5,0,0,1-.589.58,1.859,1.859,0,0,1-.835.167,1.69,1.69,0,0,1-1.323-.538,2.161,2.161,0,0,1-.483-1.5,2.239,2.239,0,0,1,.587-1.633,2.137,2.137,0,0,1,1.6-.6,2.3,2.3,0,0,1,1.246.335,2.14,2.14,0,0,1,.82.968,3.672,3.672,0,0,1,.285,1.515,4.281,4.281,0,0,1-.8,2.835,3.013,3.013,0,0,1-2.422.936A4.591,4.591,0,0,1-1351.262,1446.026Zm1.1-5.145a1.288,1.288,0,0,0-.238.834,1.16,1.16,0,0,0,.215.738.782.782,0,0,0,.655.273,1.01,1.01,0,0,0,.707-.27.824.824,0,0,0,.294-.623,1.409,1.409,0,0,0-.275-.882.845.845,0,0,0-.7-.361A.805.805,0,0,0-1350.158,1440.881Zm64.793,5.119v-3.719l.013-.609.022-.669c-.226.226-.382.374-.47.445l-.739.592-.654-.816,2.07-1.649h1.116V1446Zm-5.137,0v-3.719l.013-.609.022-.669c-.226.226-.382.374-.47.445l-.739.592-.654-.816,2.07-1.649h1.116V1446Zm-12.863,0v-3.719l.013-.609.022-.669c-.226.226-.382.374-.47.445l-.739.592-.654-.816,2.07-1.649h1.116V1446Zm-5.137,0v-3.719l.013-.609.022-.669c-.226.226-.382.374-.47.445l-.739.592-.654-.816,2.07-1.649h1.116V1446Zm-12.863,0v-3.719l.013-.609.022-.669c-.226.226-.382.374-.47.445l-.739.592-.654-.816,2.07-1.649h1.116V1446Zm-5.137,0v-3.719l.013-.609.022-.669c-.226.226-.382.374-.47.445l-.739.592-.654-.816,2.07-1.649h1.116V1446Zm-12.863,0v-3.719l.013-.609.022-.669c-.226.226-.382.374-.47.445l-.739.592-.654-.816,2.07-1.649h1.116V1446Zm-5.137,0v-3.719l.013-.609.022-.669c-.226.226-.382.374-.47.445l-.739.592-.654-.816,2.07-1.649h1.116V1446Zm-12.863,0v-3.719l.013-.609.022-.669c-.226.226-.382.374-.47.445l-.739.592-.654-.816,2.07-1.649h1.116V1446Zm-5.137,0v-3.719l.013-.609.022-.669c-.226.226-.382.374-.47.445l-.739.592-.452-.564v-.414l1.868-1.488h1.116V1446Zm72.241-9.974v-1.09a3.144,3.144,0,0,0,.773.093,2.722,2.722,0,0,0,1.121-.2,1.418,1.418,0,0,0,.672-.628,2.78,2.78,0,0,0,.267-1.18h-.052a1.505,1.505,0,0,1-.589.58,1.869,1.869,0,0,1-.835.167,1.688,1.688,0,0,1-1.323-.539,2.159,2.159,0,0,1-.483-1.5,2.232,2.232,0,0,1,.587-1.633,2.132,2.132,0,0,1,1.6-.6,2.3,2.3,0,0,1,1.246.334,2.144,2.144,0,0,1,.82.969,3.677,3.677,0,0,1,.285,1.513,4.277,4.277,0,0,1-.8,2.836,3.012,3.012,0,0,1-2.421.935A4.511,4.511,0,0,1-1290.262,1436.026Zm1.1-5.145a1.285,1.285,0,0,0-.238.834,1.165,1.165,0,0,0,.215.739.786.786,0,0,0,.655.272,1.013,1.013,0,0,0,.707-.27.822.822,0,0,0,.294-.622,1.419,1.419,0,0,0-.275-.884.848.848,0,0,0-.7-.36A.8.8,0,0,0-1289.158,1430.881Zm-19.1,5.145v-1.09a3.144,3.144,0,0,0,.773.093,2.722,2.722,0,0,0,1.121-.2,1.418,1.418,0,0,0,.672-.628,2.78,2.78,0,0,0,.267-1.18h-.052a1.505,1.505,0,0,1-.589.58,1.869,1.869,0,0,1-.835.167,1.688,1.688,0,0,1-1.323-.539,2.159,2.159,0,0,1-.483-1.5,2.232,2.232,0,0,1,.587-1.633,2.132,2.132,0,0,1,1.6-.6,2.3,2.3,0,0,1,1.246.334,2.144,2.144,0,0,1,.82.969,3.677,3.677,0,0,1,.285,1.513,4.277,4.277,0,0,1-.8,2.836,3.012,3.012,0,0,1-2.421.935A4.511,4.511,0,0,1-1308.262,1436.026Zm1.1-5.145a1.285,1.285,0,0,0-.238.834,1.165,1.165,0,0,0,.215.739.786.786,0,0,0,.655.272,1.013,1.013,0,0,0,.707-.27.822.822,0,0,0,.294-.622,1.419,1.419,0,0,0-.275-.884.848.848,0,0,0-.7-.36A.8.8,0,0,0-1307.158,1430.881Zm-19.1,5.145v-1.09a3.144,3.144,0,0,0,.773.093,2.722,2.722,0,0,0,1.121-.2,1.418,1.418,0,0,0,.672-.628,2.78,2.78,0,0,0,.267-1.18h-.052a1.505,1.505,0,0,1-.589.58,1.869,1.869,0,0,1-.835.167,1.688,1.688,0,0,1-1.323-.539,2.159,2.159,0,0,1-.483-1.5,2.232,2.232,0,0,1,.587-1.633,2.132,2.132,0,0,1,1.6-.6,2.3,2.3,0,0,1,1.246.334,2.144,2.144,0,0,1,.82.969,3.677,3.677,0,0,1,.285,1.513,4.277,4.277,0,0,1-.8,2.836,3.012,3.012,0,0,1-2.421.935A4.511,4.511,0,0,1-1326.262,1436.026Zm1.1-5.145a1.285,1.285,0,0,0-.238.834,1.165,1.165,0,0,0,.215.739.786.786,0,0,0,.655.272,1.013,1.013,0,0,0,.707-.27.822.822,0,0,0,.294-.622,1.419,1.419,0,0,0-.275-.884.848.848,0,0,0-.7-.36A.8.8,0,0,0-1325.158,1430.881Zm-19.1,5.145v-1.09a3.144,3.144,0,0,0,.773.093,2.722,2.722,0,0,0,1.121-.2,1.418,1.418,0,0,0,.672-.628,2.78,2.78,0,0,0,.267-1.18h-.052a1.505,1.505,0,0,1-.589.58,1.869,1.869,0,0,1-.835.167,1.688,1.688,0,0,1-1.323-.539,2.159,2.159,0,0,1-.483-1.5,2.232,2.232,0,0,1,.587-1.633,2.132,2.132,0,0,1,1.6-.6,2.3,2.3,0,0,1,1.246.334,2.144,2.144,0,0,1,.82.969,3.677,3.677,0,0,1,.285,1.513,4.277,4.277,0,0,1-.8,2.836,3.012,3.012,0,0,1-2.421.935A4.511,4.511,0,0,1-1344.262,1436.026Zm1.1-5.145a1.285,1.285,0,0,0-.238.834,1.165,1.165,0,0,0,.215.739.786.786,0,0,0,.655.272,1.013,1.013,0,0,0,.707-.27.822.822,0,0,0,.294-.622,1.419,1.419,0,0,0-.275-.884.848.848,0,0,0-.7-.36A.8.8,0,0,0-1343.158,1430.881Zm-19.1,5.145v-1.09a3.144,3.144,0,0,0,.773.093,2.722,2.722,0,0,0,1.121-.2,1.418,1.418,0,0,0,.672-.628,2.78,2.78,0,0,0,.267-1.18h-.052a1.505,1.505,0,0,1-.589.58,1.869,1.869,0,0,1-.835.167,1.688,1.688,0,0,1-1.323-.539,2.159,2.159,0,0,1-.483-1.5,2.232,2.232,0,0,1,.587-1.633,2.132,2.132,0,0,1,1.6-.6,2.3,2.3,0,0,1,1.246.334,2.144,2.144,0,0,1,.82.969,3.677,3.677,0,0,1,.285,1.513,4.277,4.277,0,0,1-.8,2.836,3.012,3.012,0,0,1-2.421.935A4.511,4.511,0,0,1-1362.262,1436.026Zm1.1-5.145a1.285,1.285,0,0,0-.238.834,1.165,1.165,0,0,0,.215.739.786.786,0,0,0,.655.272,1.013,1.013,0,0,0,.707-.27.822.822,0,0,0,.294-.622,1.419,1.419,0,0,0-.275-.884.848.848,0,0,0-.7-.36A.8.8,0,0,0-1361.158,1430.881ZM-1283.5,1436v-3.718l.013-.611.022-.669c-.226.227-.382.374-.471.445l-.738.594-.654-.818,2.069-1.648h1.117V1436Zm-12.863,0v-3.718l.013-.611.022-.669c-.226.227-.383.374-.471.445l-.738.594-.654-.818,2.069-1.648h1.117V1436Zm-5.137,0v-3.718l.013-.611.022-.669c-.226.227-.382.374-.471.445l-.738.594-.654-.818,2.069-1.648h1.117V1436Zm-12.863,0v-3.718l.013-.611.022-.669c-.226.227-.383.374-.471.445l-.738.594-.654-.818,2.069-1.648h1.117V1436Zm-5.137,0v-3.718l.013-.611.022-.669c-.226.227-.382.374-.471.445l-.738.594-.654-.818,2.069-1.648h1.117V1436Zm-12.863,0v-3.718l.013-.611.022-.669c-.226.227-.383.374-.471.445l-.738.594-.654-.818,2.069-1.648h1.117V1436Zm-5.137,0v-3.718l.013-.611.022-.669c-.226.227-.382.374-.471.445l-.738.594-.654-.818,2.069-1.648h1.117V1436Zm-12.863,0v-3.718l.013-.611.022-.669c-.226.227-.383.374-.471.445l-.738.594-.654-.818,2.069-1.648h1.117V1436Zm-5.137,0v-3.718l.013-.611.022-.669c-.226.227-.382.374-.471.445l-.738.594-.654-.818,2.069-1.648h1.117V1436Zm58.241-10.973v-1.091a3.159,3.159,0,0,0,.774.092,2.722,2.722,0,0,0,1.12-.2,1.426,1.426,0,0,0,.672-.628,2.777,2.777,0,0,0,.268-1.18h-.053a1.5,1.5,0,0,1-.589.58,1.857,1.857,0,0,1-.835.167,1.69,1.69,0,0,1-1.323-.539,2.158,2.158,0,0,1-.483-1.5,2.236,2.236,0,0,1,.587-1.633,2.134,2.134,0,0,1,1.6-.6,2.293,2.293,0,0,1,1.246.334,2.142,2.142,0,0,1,.82.968,3.676,3.676,0,0,1,.285,1.513,4.278,4.278,0,0,1-.8,2.835,3.01,3.01,0,0,1-2.422.936A4.685,4.685,0,0,1-1297.262,1425.028Zm1.1-5.146a1.284,1.284,0,0,0-.238.834,1.162,1.162,0,0,0,.215.739.784.784,0,0,0,.655.273,1.01,1.01,0,0,0,.707-.271.822.822,0,0,0,.294-.622,1.416,1.416,0,0,0-.275-.884.846.846,0,0,0-.7-.36A.805.805,0,0,0-1296.158,1419.881Zm-19.1,5.146v-1.091a3.159,3.159,0,0,0,.774.092,2.722,2.722,0,0,0,1.12-.2,1.426,1.426,0,0,0,.672-.628,2.777,2.777,0,0,0,.268-1.18h-.053a1.5,1.5,0,0,1-.589.58,1.857,1.857,0,0,1-.835.167,1.69,1.69,0,0,1-1.323-.539,2.158,2.158,0,0,1-.483-1.5,2.236,2.236,0,0,1,.587-1.633,2.134,2.134,0,0,1,1.6-.6,2.293,2.293,0,0,1,1.246.334,2.142,2.142,0,0,1,.82.968,3.676,3.676,0,0,1,.285,1.513,4.278,4.278,0,0,1-.8,2.835,3.01,3.01,0,0,1-2.422.936A4.685,4.685,0,0,1-1315.262,1425.028Zm1.1-5.146a1.284,1.284,0,0,0-.238.834,1.162,1.162,0,0,0,.215.739.784.784,0,0,0,.655.273,1.01,1.01,0,0,0,.707-.271.822.822,0,0,0,.294-.622,1.416,1.416,0,0,0-.275-.884.846.846,0,0,0-.7-.36A.805.805,0,0,0-1314.158,1419.881Zm-19.1,5.146v-1.091a3.159,3.159,0,0,0,.774.092,2.722,2.722,0,0,0,1.12-.2,1.426,1.426,0,0,0,.672-.628,2.777,2.777,0,0,0,.268-1.18h-.053a1.5,1.5,0,0,1-.589.58,1.857,1.857,0,0,1-.835.167,1.69,1.69,0,0,1-1.323-.539,2.158,2.158,0,0,1-.483-1.5,2.236,2.236,0,0,1,.587-1.633,2.134,2.134,0,0,1,1.6-.6,2.293,2.293,0,0,1,1.246.334,2.142,2.142,0,0,1,.82.968,3.676,3.676,0,0,1,.285,1.513,4.278,4.278,0,0,1-.8,2.835,3.01,3.01,0,0,1-2.422.936A4.685,4.685,0,0,1-1333.262,1425.028Zm1.1-5.146a1.284,1.284,0,0,0-.238.834,1.162,1.162,0,0,0,.215.739.784.784,0,0,0,.655.273,1.01,1.01,0,0,0,.707-.271.822.822,0,0,0,.294-.622,1.416,1.416,0,0,0-.275-.884.846.846,0,0,0-.7-.36A.805.805,0,0,0-1332.158,1419.881Zm-19.1,5.146v-1.091a3.159,3.159,0,0,0,.774.092,2.722,2.722,0,0,0,1.12-.2,1.426,1.426,0,0,0,.672-.628,2.777,2.777,0,0,0,.268-1.18h-.053a1.5,1.5,0,0,1-.589.58,1.857,1.857,0,0,1-.835.167,1.69,1.69,0,0,1-1.323-.539,2.158,2.158,0,0,1-.483-1.5,2.236,2.236,0,0,1,.587-1.633,2.134,2.134,0,0,1,1.6-.6,2.293,2.293,0,0,1,1.246.334,2.142,2.142,0,0,1,.82.968,3.66,3.66,0,0,1,.285,1.513,4.278,4.278,0,0,1-.8,2.835,3.01,3.01,0,0,1-2.422.936A4.685,4.685,0,0,1-1351.262,1425.028Zm1.1-5.146a1.284,1.284,0,0,0-.238.834,1.162,1.162,0,0,0,.215.739.784.784,0,0,0,.655.273,1.01,1.01,0,0,0,.707-.271.822.822,0,0,0,.294-.622,1.416,1.416,0,0,0-.275-.884.846.846,0,0,0-.7-.36A.805.805,0,0,0-1350.158,1419.881Zm64.793,5.119v-3.719l.013-.609.022-.669q-.339.338-.47.445l-.739.593-.654-.818,2.07-1.648h1.116V1425Zm-5.137,0v-3.719l.013-.609.022-.669q-.339.338-.47.445l-.739.593-.654-.818,2.07-1.648h1.116V1425Zm-12.863,0v-3.719l.013-.609.022-.669q-.339.338-.47.445l-.739.593-.654-.818,2.07-1.648h1.116V1425Zm-5.137,0v-3.719l.013-.609.022-.669q-.339.338-.47.445l-.739.593-.654-.818,2.07-1.648h1.116V1425Zm-12.863,0v-3.719l.013-.609.022-.669q-.339.338-.47.445l-.739.593-.654-.818,2.07-1.648h1.116V1425Zm-5.137,0v-3.719l.013-.609.022-.669q-.339.338-.47.445l-.739.593-.654-.818,2.07-1.648h1.116V1425Zm-12.863,0v-3.719l.013-.609.022-.669q-.339.338-.47.445l-.739.593-.654-.818,2.07-1.648h1.116V1425Zm-5.137,0v-3.719l.013-.609.022-.669q-.339.338-.47.445l-.739.593-.654-.818,2.07-1.648h1.116V1425Zm-12.863,0v-3.719l.013-.609.022-.669q-.339.338-.47.445l-.739.593-.654-.818,2.07-1.648h1.116V1425Zm-5.137,0v-3.719l.013-.609.022-.669q-.339.338-.47.445l-.739.593-.453-.566v-.412l1.869-1.488h1.116V1425Zm72.241-9.975v-1.089a3.186,3.186,0,0,0,.773.093,2.707,2.707,0,0,0,1.121-.2,1.41,1.41,0,0,0,.672-.628,2.773,2.773,0,0,0,.267-1.18h-.052a1.5,1.5,0,0,1-.589.58,1.846,1.846,0,0,1-.835.168,1.688,1.688,0,0,1-1.323-.539,2.157,2.157,0,0,1-.483-1.5,2.233,2.233,0,0,1,.587-1.633,2.129,2.129,0,0,1,1.6-.6,2.288,2.288,0,0,1,1.246.335,2.143,2.143,0,0,1,.82.968,3.676,3.676,0,0,1,.285,1.514,4.28,4.28,0,0,1-.8,2.835,3.013,3.013,0,0,1-2.421.936A4.413,4.413,0,0,1-1290.262,1415.026Zm1.1-5.144a1.284,1.284,0,0,0-.238.833,1.169,1.169,0,0,0,.215.74.786.786,0,0,0,.655.271,1.006,1.006,0,0,0,.707-.27.82.82,0,0,0,.294-.621,1.414,1.414,0,0,0-.275-.883.845.845,0,0,0-.7-.362A.8.8,0,0,0-1289.158,1409.882Zm-19.1,5.144v-1.089a3.186,3.186,0,0,0,.773.093,2.707,2.707,0,0,0,1.121-.2,1.41,1.41,0,0,0,.672-.628,2.773,2.773,0,0,0,.267-1.18h-.052a1.5,1.5,0,0,1-.589.58,1.846,1.846,0,0,1-.835.168,1.688,1.688,0,0,1-1.323-.539,2.157,2.157,0,0,1-.483-1.5,2.233,2.233,0,0,1,.587-1.633,2.129,2.129,0,0,1,1.6-.6,2.288,2.288,0,0,1,1.246.335,2.143,2.143,0,0,1,.82.968,3.676,3.676,0,0,1,.285,1.514,4.28,4.28,0,0,1-.8,2.835,3.013,3.013,0,0,1-2.421.936A4.413,4.413,0,0,1-1308.262,1415.026Zm1.1-5.144a1.284,1.284,0,0,0-.238.833,1.169,1.169,0,0,0,.215.74.786.786,0,0,0,.655.271,1.006,1.006,0,0,0,.707-.27.82.82,0,0,0,.294-.621,1.414,1.414,0,0,0-.275-.883.845.845,0,0,0-.7-.362A.8.8,0,0,0-1307.158,1409.882Zm-19.1,5.144v-1.089a3.186,3.186,0,0,0,.773.093,2.707,2.707,0,0,0,1.121-.2,1.41,1.41,0,0,0,.672-.628,2.773,2.773,0,0,0,.267-1.18h-.052a1.5,1.5,0,0,1-.589.58,1.846,1.846,0,0,1-.835.168,1.688,1.688,0,0,1-1.323-.539,2.157,2.157,0,0,1-.483-1.5,2.233,2.233,0,0,1,.587-1.633,2.129,2.129,0,0,1,1.6-.6,2.288,2.288,0,0,1,1.246.335,2.143,2.143,0,0,1,.82.968,3.676,3.676,0,0,1,.285,1.514,4.28,4.28,0,0,1-.8,2.835,3.013,3.013,0,0,1-2.421.936A4.413,4.413,0,0,1-1326.262,1415.026Zm1.1-5.144a1.284,1.284,0,0,0-.238.833,1.169,1.169,0,0,0,.215.74.786.786,0,0,0,.655.271,1.006,1.006,0,0,0,.707-.27.82.82,0,0,0,.294-.621,1.414,1.414,0,0,0-.275-.883.845.845,0,0,0-.7-.362A.8.8,0,0,0-1325.158,1409.882Zm-19.1,5.144v-1.089a3.186,3.186,0,0,0,.773.093,2.707,2.707,0,0,0,1.121-.2,1.41,1.41,0,0,0,.672-.628,2.773,2.773,0,0,0,.267-1.18h-.052a1.5,1.5,0,0,1-.589.58,1.846,1.846,0,0,1-.835.168,1.688,1.688,0,0,1-1.323-.539,2.157,2.157,0,0,1-.483-1.5,2.233,2.233,0,0,1,.587-1.633,2.129,2.129,0,0,1,1.6-.6,2.288,2.288,0,0,1,1.246.335,2.143,2.143,0,0,1,.82.968,3.676,3.676,0,0,1,.285,1.514,4.28,4.28,0,0,1-.8,2.835,3.013,3.013,0,0,1-2.421.936A4.413,4.413,0,0,1-1344.262,1415.026Zm1.1-5.144a1.284,1.284,0,0,0-.238.833,1.169,1.169,0,0,0,.215.74.786.786,0,0,0,.655.271,1.006,1.006,0,0,0,.707-.27.82.82,0,0,0,.294-.621,1.414,1.414,0,0,0-.275-.883.845.845,0,0,0-.7-.362A.8.8,0,0,0-1343.158,1409.882Zm-19.1,5.144v-1.089a3.186,3.186,0,0,0,.773.093,2.707,2.707,0,0,0,1.121-.2,1.41,1.41,0,0,0,.672-.628,2.773,2.773,0,0,0,.267-1.18h-.052a1.5,1.5,0,0,1-.589.58,1.846,1.846,0,0,1-.835.168,1.688,1.688,0,0,1-1.323-.539,2.157,2.157,0,0,1-.483-1.5,2.233,2.233,0,0,1,.587-1.633,2.129,2.129,0,0,1,1.6-.6,2.288,2.288,0,0,1,1.246.335,2.143,2.143,0,0,1,.82.968,3.676,3.676,0,0,1,.285,1.514,4.28,4.28,0,0,1-.8,2.835,3.013,3.013,0,0,1-2.421.936A4.413,4.413,0,0,1-1362.262,1415.026Zm1.1-5.144a1.284,1.284,0,0,0-.238.833,1.169,1.169,0,0,0,.215.74.786.786,0,0,0,.655.271,1.006,1.006,0,0,0,.707-.27.82.82,0,0,0,.294-.621,1.414,1.414,0,0,0-.275-.883.845.845,0,0,0-.7-.362A.8.8,0,0,0-1361.158,1409.882ZM-1283.5,1415v-3.717l.013-.61.022-.669c-.226.226-.382.373-.471.445l-.738.593-.654-.818,2.069-1.648h1.117V1415Zm-12.863,0v-3.717l.013-.61.022-.669c-.226.226-.383.373-.471.445l-.738.593-.654-.818,2.069-1.648h1.117V1415Zm-5.137,0v-3.717l.013-.61.022-.669c-.226.226-.382.373-.471.445l-.738.593-.654-.818,2.069-1.648h1.117V1415Zm-12.863,0v-3.717l.013-.61.022-.669c-.226.226-.383.373-.471.445l-.738.593-.654-.818,2.069-1.648h1.117V1415Zm-5.137,0v-3.717l.013-.61.022-.669c-.226.226-.382.373-.471.445l-.738.593-.654-.818,2.069-1.648h1.117V1415Zm-12.863,0v-3.717l.013-.61.022-.669c-.226.226-.383.373-.471.445l-.738.593-.654-.818,2.069-1.648h1.117V1415Zm-5.137,0v-3.717l.013-.61.022-.669c-.226.226-.382.373-.471.445l-.738.593-.654-.818,2.069-1.648h1.117V1415Zm-12.863,0v-3.717l.013-.61.022-.669c-.226.226-.383.373-.471.445l-.738.593-.654-.818,2.069-1.648h1.117V1415Zm-5.137,0v-3.717l.013-.61.022-.669c-.226.226-.382.373-.471.445l-.738.593-.654-.818,2.069-1.648h1.117V1415Zm58.241-10.973v-1.09a3.2,3.2,0,0,0,.774.092,2.721,2.721,0,0,0,1.12-.2,1.415,1.415,0,0,0,.672-.629,2.769,2.769,0,0,0,.268-1.179h-.053a1.51,1.51,0,0,1-.589.58,1.857,1.857,0,0,1-.835.167,1.689,1.689,0,0,1-1.323-.537,2.162,2.162,0,0,1-.483-1.5,2.236,2.236,0,0,1,.587-1.632,2.13,2.13,0,0,1,1.6-.6,2.286,2.286,0,0,1,1.246.334,2.145,2.145,0,0,1,.82.967,3.688,3.688,0,0,1,.285,1.515,4.281,4.281,0,0,1-.8,2.835,3.013,3.013,0,0,1-2.422.936A4.593,4.593,0,0,1-1297.262,1404.027Zm1.1-5.147a1.292,1.292,0,0,0-.238.835,1.164,1.164,0,0,0,.215.739.784.784,0,0,0,.655.273,1.007,1.007,0,0,0,.707-.272.821.821,0,0,0,.294-.621,1.411,1.411,0,0,0-.275-.883.845.845,0,0,0-.7-.361A.807.807,0,0,0-1296.158,1398.88Zm-19.1,5.147v-1.09a3.2,3.2,0,0,0,.774.092,2.721,2.721,0,0,0,1.12-.2,1.415,1.415,0,0,0,.672-.629,2.769,2.769,0,0,0,.268-1.179h-.053a1.51,1.51,0,0,1-.589.58,1.857,1.857,0,0,1-.835.167,1.689,1.689,0,0,1-1.323-.537,2.162,2.162,0,0,1-.483-1.5,2.236,2.236,0,0,1,.587-1.632,2.13,2.13,0,0,1,1.6-.6,2.286,2.286,0,0,1,1.246.334,2.145,2.145,0,0,1,.82.967,3.688,3.688,0,0,1,.285,1.515,4.281,4.281,0,0,1-.8,2.835,3.013,3.013,0,0,1-2.422.936A4.593,4.593,0,0,1-1315.262,1404.027Zm1.1-5.147a1.292,1.292,0,0,0-.238.835,1.164,1.164,0,0,0,.215.739.784.784,0,0,0,.655.273,1.007,1.007,0,0,0,.707-.272.821.821,0,0,0,.294-.621,1.411,1.411,0,0,0-.275-.883.845.845,0,0,0-.7-.361A.807.807,0,0,0-1314.158,1398.88Zm-19.1,5.147v-1.09a3.2,3.2,0,0,0,.774.092,2.721,2.721,0,0,0,1.12-.2,1.415,1.415,0,0,0,.672-.629,2.769,2.769,0,0,0,.268-1.179h-.053a1.51,1.51,0,0,1-.589.58,1.857,1.857,0,0,1-.835.167,1.689,1.689,0,0,1-1.323-.537,1.855,1.855,0,0,1-.427-.893l1.3-.265a.968.968,0,0,0,.177.382.784.784,0,0,0,.655.273,1.007,1.007,0,0,0,.707-.272.821.821,0,0,0,.294-.621c0-.046,0-.091,0-.136l1.271-.26a4.35,4.35,0,0,1,.083.879,4.281,4.281,0,0,1-.8,2.835,3.013,3.013,0,0,1-2.422.936A4.593,4.593,0,0,1-1333.262,1404.027Zm-18,0v-.092l3.162-.646a3.1,3.1,0,0,1-2.3.8A4.593,4.593,0,0,1-1351.262,1404.027Zm65.9-.027v-3.718l.013-.61.022-.669c-.226.226-.382.374-.47.445l-.739.593-.654-.817,2.07-1.648h1.116V1404Zm-5.137,0v-3.718l.013-.61.022-.669c-.226.226-.382.374-.47.445l-.739.593-.654-.817,2.07-1.648h1.116V1404Zm-12.863,0v-3.718l.013-.61.022-.669c-.226.226-.382.374-.47.445l-.739.593-.654-.817,2.07-1.648h1.116V1404Zm-5.137,0v-3.718l.013-.61.022-.669c-.226.226-.382.374-.47.445l-.739.593-.654-.817,2.07-1.648h1.116V1404Zm-12.863,0v-3.718l.013-.61.022-.669c-.226.226-.382.374-.47.445l-.739.593-.654-.817,1.731-1.378,1.32-.27h.135V1404Zm-5.137,0v-3.718l.013-.61.022-.669c-.226.226-.382.374-.47.445l-.739.593-.637-.8,3.169-.647v5.4Zm-12.863,0v-2.5l1.358-.278V1404Zm-5.137,0v-1.446l1.358-.277V1404Zm54.241-9.974v-1.09a3.145,3.145,0,0,0,.773.092,2.723,2.723,0,0,0,1.121-.2,1.426,1.426,0,0,0,.672-.628,2.781,2.781,0,0,0,.267-1.18h-.052a1.5,1.5,0,0,1-.589.58,1.858,1.858,0,0,1-.835.167,1.764,1.764,0,0,1-1.117-.347l3.84-.785a4.018,4.018,0,0,1-.794,2.515,3.008,3.008,0,0,1-2.421.937A4.578,4.578,0,0,1-1290.262,1394.026Zm6.759-.026v-3.719l0-.193,1.354-.277V1394Zm-12.863,0v-1.283l1.358-.277V1394Zm-5.137,0v-.233l1.358-.277v.51Z" transform="translate(2573 -872)" fill="#fff" stroke="rgba(0,0,0,0)" stroke-width="1"/>
  </g>
</svg>