<svg xmlns="http://www.w3.org/2000/svg" width="664.217" height="190" viewBox="0 0 664.217 190">
  <g id="Group_41" data-name="Group 41" transform="translate(-954.66 -126)">
    <g id="Group_39" data-name="Group 39" transform="translate(1110 -28)">
      <g id="Group_6" data-name="Group 6" transform="translate(135 154)">
        <path id="Path_3" data-name="Path 3" d="M-454-963.284l87.136-17.143L-289.5-963.3l-77.364,25.656Z" transform="translate(454 1025)" fill="#513082"/>
        <g id="Group_5" data-name="Group 5">
          <path id="Path_2" data-name="Path 2" d="M-454-706.417v-98.771l82.123,16.828,82.392-16.828v107.419L-371.877-676.9Z" transform="translate(454 866.904)" fill="#6f40b5"/>
          <g id="Group_1" data-name="Group 1" transform="translate(22)">
            <path id="Subtraction_4" data-name="Subtraction 4" d="M30,60H0A60.016,60.016,0,0,1,115.285,36.644,59.629,59.629,0,0,1,120,60H90a30,30,0,0,0-60,0Z" transform="translate(0 0)" fill="#6f40b5"/>
            <ellipse id="Ellipse_5" data-name="Ellipse 5" cx="15" cy="6" rx="15" ry="6" transform="translate(90 54)" fill="#6f40b5"/>
            <ellipse id="Ellipse_6" data-name="Ellipse 6" cx="15" cy="6" rx="15" ry="6" transform="translate(0 54)" fill="#6f40b5"/>
          </g>
        </g>
      </g>
    </g>
    <path id="Path_25" data-name="Path 25" d="M45.558,0H33.438L13.874-34.022H13.6q.584,9.013.584,12.858V0H5.66V-44.974H17.688L37.222-11.29h.215q-.461-8.767-.461-12.4V-44.974h8.583ZM77.981,0,76.166-4.676H75.92A13.857,13.857,0,0,1,71.044-.538,15.757,15.757,0,0,1,64.507.615a10.57,10.57,0,0,1-7.8-2.83q-2.845-2.83-2.845-8.06,0-5.476,3.83-8.075t11.551-2.876l5.968-.185v-1.507q0-5.229-5.353-5.229a24.392,24.392,0,0,0-9.69,2.492l-3.107-6.337A27.959,27.959,0,0,1,70.229-35.1q6.921,0,10.613,3.015t3.691,9.167V0ZM75.212-15.935l-3.63.123a11.624,11.624,0,0,0-6.091,1.477,4.638,4.638,0,0,0-2,4.122q0,3.968,4.553,3.968a7.21,7.21,0,0,0,5.214-1.876A6.591,6.591,0,0,0,75.212-13.1ZM108.681-6.86a20.338,20.338,0,0,0,5.906-1.077V-.954A21.059,21.059,0,0,1,105.974.615q-5.629,0-8.2-2.845t-2.569-8.536V-27.347H90.716v-3.968l5.168-3.138,2.707-7.26h6v7.321h9.628v7.044H104.59v16.581a3.663,3.663,0,0,0,1.123,2.953A4.43,4.43,0,0,0,108.681-6.86ZM121.14-43.282q0-4.583,5.106-4.583t5.106,4.583a4.469,4.469,0,0,1-1.277,3.4,5.366,5.366,0,0,1-3.83,1.215Q121.14-38.667,121.14-43.282ZM130.922,0H121.54V-34.392h9.382Zm17.319-17.257q0,5.106,1.677,7.721t5.46,2.615q3.753,0,5.4-2.6t1.646-7.737q0-5.106-1.661-7.66t-5.445-2.553q-3.753,0-5.414,2.538T148.241-17.257Zm23.779,0q0,8.4-4.43,13.135T155.254.615a17.256,17.256,0,0,1-8.736-2.169A14.431,14.431,0,0,1,140.7-7.783a20.932,20.932,0,0,1-2.03-9.475q0-8.429,4.4-13.1t12.366-4.676a17.353,17.353,0,0,1,8.736,2.153,14.373,14.373,0,0,1,5.814,6.183A20.738,20.738,0,0,1,172.02-17.257ZM211.518,0h-9.382V-20.087a9.649,9.649,0,0,0-1.323-5.583,4.813,4.813,0,0,0-4.214-1.861q-3.937,0-5.691,2.63t-1.753,8.721V0h-9.382V-34.392h7.167l1.261,4.4h.523a9.915,9.915,0,0,1,4.322-3.768,14.717,14.717,0,0,1,6.26-1.277q6,0,9.105,3.245t3.107,9.367Zm31.5,0L241.2-4.676h-.246a13.857,13.857,0,0,1-4.876,4.137A15.757,15.757,0,0,1,229.544.615a10.57,10.57,0,0,1-7.8-2.83q-2.845-2.83-2.845-8.06,0-5.476,3.83-8.075t11.551-2.876l5.968-.185v-1.507q0-5.229-5.353-5.229a24.392,24.392,0,0,0-9.69,2.492L222.1-31.992A27.959,27.959,0,0,1,235.266-35.1q6.921,0,10.613,3.015t3.691,9.167V0Zm-2.769-15.935-3.63.123a11.624,11.624,0,0,0-6.091,1.477,4.638,4.638,0,0,0-2,4.122q0,3.968,4.553,3.968A7.21,7.21,0,0,0,238.3-8.121a6.591,6.591,0,0,0,1.953-4.983ZM268.611,0h-9.382V-47.865h9.382Z" transform="translate(949 268)"/>
    <path id="Path_26" data-name="Path 26" d="M47.18-36.008q0,18.563-7.82,27.715T15.684.859a44.457,44.457,0,0,1-8.465-.6V-10.4a31.072,31.072,0,0,0,7.563.9,26.559,26.559,0,0,0,10.957-1.955A13.821,13.821,0,0,0,32.313-17.6q2.277-4.189,2.621-11.537h-.516a14.684,14.684,0,0,1-5.758,5.672A18.175,18.175,0,0,1,20.5-21.828q-8.207,0-12.934-5.264T2.836-41.723q0-10.1,5.736-15.963t15.619-5.865a22.489,22.489,0,0,1,12.182,3.266,20.962,20.962,0,0,1,8.014,9.475A35.875,35.875,0,0,1,47.18-36.008ZM24.449-52.895A7.868,7.868,0,0,0,18-50.059q-2.32,2.836-2.32,8.164a11.334,11.334,0,0,0,2.105,7.219q2.105,2.664,6.4,2.664a9.872,9.872,0,0,0,6.918-2.643,8.048,8.048,0,0,0,2.879-6.08A13.83,13.83,0,0,0,31.3-49.371,8.264,8.264,0,0,0,24.449-52.895ZM86.582,0H73.3V-36.352l.129-5.973.215-6.531q-3.309,3.309-4.6,4.34l-7.219,5.8-6.4-7.992L75.668-62.82H86.582Zm50.23,0H123.535V-36.352l.129-5.973.215-6.531q-3.309,3.309-4.6,4.34l-7.219,5.8-6.4-7.992L125.9-62.82h10.914Z" transform="translate(1259 277)" fill="#fff"/>
    <path id="Path_27" data-name="Path 27" d="M15.2-23.81h3.138q4.4,0,6.583-1.738a6.083,6.083,0,0,0,2.184-5.06,6.237,6.237,0,0,0-1.83-4.953q-1.83-1.6-5.737-1.6H15.2Zm21.533-7.137q0,7.26-4.537,11.1T19.288-16H15.2V0H5.66V-44.974H20.026q8.183,0,12.443,3.522T36.729-30.946ZM51.957-17.257q0,5.106,1.677,7.721t5.46,2.615q3.753,0,5.4-2.6t1.646-7.737q0-5.106-1.661-7.66T59.032-27.47q-3.753,0-5.414,2.538T51.957-17.257Zm23.779,0q0,8.4-4.43,13.135T58.97.615a17.256,17.256,0,0,1-8.736-2.169A14.431,14.431,0,0,1,44.42-7.783a20.932,20.932,0,0,1-2.03-9.475q0-8.429,4.4-13.1t12.366-4.676a17.353,17.353,0,0,1,8.736,2.153A14.373,14.373,0,0,1,73.705-26.7,20.738,20.738,0,0,1,75.735-17.257Zm26.947-17.78a15.131,15.131,0,0,1,3.168.277l-.708,8.8a10.748,10.748,0,0,0-2.769-.308,9.949,9.949,0,0,0-7,2.307A8.34,8.34,0,0,0,92.87-17.5V0H83.487V-34.392h7.106l1.384,5.783h.461a12.928,12.928,0,0,1,4.322-4.66A10.657,10.657,0,0,1,102.683-35.038Zm23.9,28.178a20.338,20.338,0,0,0,5.906-1.077V-.954A21.059,21.059,0,0,1,123.877.615q-5.629,0-8.2-2.845t-2.569-8.536V-27.347H108.62v-3.968l5.168-3.138,2.707-7.26h6v7.321h9.628v7.044h-9.628v16.581a3.663,3.663,0,0,0,1.123,2.953A4.43,4.43,0,0,0,126.584-6.86ZM161.284,0l-1.815-4.676h-.246a13.857,13.857,0,0,1-4.876,4.137A15.757,15.757,0,0,1,147.81.615a10.57,10.57,0,0,1-7.8-2.83q-2.845-2.83-2.845-8.06,0-5.476,3.83-8.075t11.551-2.876l5.968-.185v-1.507q0-5.229-5.353-5.229a24.392,24.392,0,0,0-9.69,2.492l-3.107-6.337A27.959,27.959,0,0,1,153.532-35.1q6.921,0,10.613,3.015t3.691,9.167V0Zm-2.769-15.935-3.63.123a11.624,11.624,0,0,0-6.091,1.477,4.638,4.638,0,0,0-2,4.122q0,3.968,4.553,3.968a7.21,7.21,0,0,0,5.214-1.876,6.591,6.591,0,0,0,1.953-4.983ZM186.877,0H177.5V-47.865h9.382Z" transform="translate(1432 268)"/>
  </g>
</svg>